<?xml version="1.0" standalone="no"?>
<!DOCTYPE svg PUBLIC "-//W3C//DTD SVG 20010904//EN"
 "http://www.w3.org/TR/2001/REC-SVG-20010904/DTD/svg10.dtd">
<svg version="1.0" xmlns="http://www.w3.org/2000/svg"
 width="194.000000pt" height="165.000000pt" viewBox="0 0 194.000000 165.000000"
 preserveAspectRatio="xMidYMid meet">

<g transform="translate(0.000000,165.000000) scale(0.100000,-0.100000)"
fill="#000000" stroke="none">
<path d="M723 1465 c-45 -36 -90 -112 -109 -184 -31 -123 2 -244 92 -341 58
-62 80 -66 26 -5 -80 91 -116 216 -94 322 15 71 51 147 92 192 38 41 35 48 -7
16z"/>
<path d="M1308 1027 c-15 -23 -40 -55 -57 -71 -17 -17 -31 -34 -31 -40 0 -18
81 68 102 107 27 53 18 55 -14 4z"/>
<path d="M746 978 c10 -14 21 -24 23 -22 3 3 -6 15 -18 27 l-24 22 19 -27z"/>
<path d="M284 716 c-42 -19 -64 -52 -64 -99 0 -51 22 -91 59 -107 37 -15 92
-6 114 18 15 16 15 19 -3 30 -12 7 -21 8 -25 2 -10 -17 -61 -11 -78 8 -22 25
-21 75 1 95 20 19 62 22 78 8 5 -6 16 -5 26 3 17 12 17 14 0 28 -26 23 -73 29
-108 14z"/>
<path d="M523 715 c-42 -18 -66 -57 -66 -106 0 -56 44 -101 99 -103 33 -1 39
2 42 21 3 19 -2 22 -35 25 -29 2 -41 9 -50 29 -19 40 0 88 38 96 22 4 29 11
29 29 0 27 -11 29 -57 9z"/>
<path d="M1456 693 c-4 -14 -3 -29 2 -32 9 -6 32 -66 32 -82 0 -5 -11 -9 -25
-9 -16 0 -25 -6 -25 -15 0 -10 10 -15 34 -15 25 0 35 -5 39 -20 3 -13 14 -20
31 -20 l26 0 -21 53 c-12 28 -31 78 -42 110 -23 62 -41 73 -51 30z"/>
<path d="M1610 610 l0 -110 65 0 c63 0 65 1 65 25 0 23 -4 25 -40 25 l-40 0 0
85 c0 84 0 85 -25 85 l-25 0 0 -110z"/>
<path d="M260 438 c-13 -5 -28 -14 -32 -21 -13 -21 -9 -75 8 -92 20 -19 85
-17 92 4 3 10 -1 12 -18 8 -32 -8 -60 9 -60 37 0 32 22 48 55 40 20 -5 26 -3
23 6 -6 20 -40 29 -68 18z"/>
<path d="M370 375 c0 -62 15 -91 22 -42 2 16 11 23 31 25 23 3 27 0 27 -22 0
-16 6 -26 15 -26 12 0 15 14 15 65 0 51 -3 65 -15 65 -10 0 -15 -10 -15 -31 0
-27 -3 -30 -27 -27 -22 2 -29 9 -31 31 -6 53 -22 26 -22 -38z"/>
<path d="M541 379 c-23 -59 -22 -84 1 -61 7 7 25 12 41 12 30 0 30 0 23 47 -5
41 -18 62 -36 63 -3 0 -16 -27 -29 -61z m54 -6 c5 -19 2 -23 -14 -23 -23 0
-24 3 -15 38 7 26 18 20 29 -15z"/>
<path d="M1519 413 c-36 -92 -39 -103 -24 -103 8 0 15 5 15 10 0 14 53 13 67
-1 27 -27 29 0 6 59 -27 67 -47 78 -64 35z m38 -59 c-3 -3 -12 -4 -20 -2 -11
2 -12 9 -5 28 l10 25 11 -23 c5 -12 8 -25 4 -28z"/>
<path d="M1650 421 c-8 -17 -7 -24 10 -41 11 -11 27 -20 35 -20 8 0 15 -7 15
-15 0 -18 -23 -19 -52 -4 -17 9 -19 8 -16 -7 4 -21 46 -34 76 -23 35 13 30 58
-8 72 -41 16 -41 42 1 33 22 -4 29 -2 27 7 -3 6 -21 13 -41 15 -28 2 -38 -1
-47 -17z"/>
<path d="M1425 320 c-3 -5 1 -10 9 -10 9 0 16 5 16 10 0 6 -4 10 -9 10 -6 0
-13 -4 -16 -10z"/>
<path d="M395 200 c-8 -12 12 -40 28 -40 6 0 3 6 -8 13 -10 8 -15 19 -11 25 4
7 5 12 2 12 -3 0 -8 -5 -11 -10z"/>
<path d="M503 165 c0 -27 2 -38 4 -22 2 15 2 37 0 50 -2 12 -4 0 -4 -28z"/>
<path d="M1400 186 c0 -2 8 -10 18 -17 15 -13 16 -12 3 4 -13 16 -21 21 -21
13z"/>
<path d="M591 164 c0 -11 3 -14 6 -6 3 7 2 16 -1 19 -3 4 -6 -2 -5 -13z"/>
<path d="M681 164 c0 -11 3 -14 6 -6 3 7 2 16 -1 19 -3 4 -6 -2 -5 -13z"/>
<path d="M1318 163 c7 -3 16 -2 19 1 4 3 -2 6 -13 5 -11 0 -14 -3 -6 -6z"/>
</g>
</svg>
